<svg width="20" height="20" viewBox="0 0 20 20" fill="none" xmlns="http://www.w3.org/2000/svg">
<path d="M7.50002 18.3333H12.5C16.6667 18.3333 18.3334 16.6667 18.3334 12.5V7.5C18.3334 3.33333 16.6667 1.66667 12.5 1.66667H7.50002C3.33335 1.66667 1.66669 3.33333 1.66669 7.5V12.5C1.66669 16.6667 3.33335 18.3333 7.50002 18.3333Z" stroke="#F8F8F8" stroke-width="1.5" stroke-linecap="round" stroke-linejoin="round"/>
<path d="M12.975 15.4167V12.1667" stroke="#F8F8F8" stroke-width="1.5" stroke-miterlimit="10" stroke-linecap="round" stroke-linejoin="round"/>
<path d="M12.975 6.20833V4.58333" stroke="#F8F8F8" stroke-width="1.5" stroke-miterlimit="10" stroke-linecap="round" stroke-linejoin="round"/>
<path d="M12.975 10.5417C14.1716 10.5417 15.1417 9.57162 15.1417 8.375C15.1417 7.17838 14.1716 6.20833 12.975 6.20833C11.7784 6.20833 10.8083 7.17838 10.8083 8.375C10.8083 9.57162 11.7784 10.5417 12.975 10.5417Z" stroke="#F8F8F8" stroke-width="1.5" stroke-miterlimit="10" stroke-linecap="round" stroke-linejoin="round"/>
<path d="M7.02502 15.4167V13.7917" stroke="#F8F8F8" stroke-width="1.5" stroke-miterlimit="10" stroke-linecap="round" stroke-linejoin="round"/>
<path d="M7.02502 7.83333V4.58333" stroke="#F8F8F8" stroke-width="1.5" stroke-miterlimit="10" stroke-linecap="round" stroke-linejoin="round"/>
<path d="M7.025 13.7917C8.22162 13.7917 9.19167 12.8216 9.19167 11.625C9.19167 10.4284 8.22162 9.45833 7.025 9.45833C5.82839 9.45833 4.85834 10.4284 4.85834 11.625C4.85834 12.8216 5.82839 13.7917 7.025 13.7917Z" stroke="#F8F8F8" stroke-width="1.5" stroke-miterlimit="10" stroke-linecap="round" stroke-linejoin="round"/>
</svg>
